<svg width="16" height="16" viewBox="0 0 16 16" fill="none" xmlns="http://www.w3.org/2000/svg">
<path fill-rule="evenodd" clip-rule="evenodd" d="M11.5527 3.81158C11.3033 3.87089 10.9735 3.98033 10.4914 4.14103L6.6343 5.42674C5.4427 5.82394 5.4427 7.50943 6.6343 7.90663C7.32319 8.13626 7.86376 8.67683 8.09339 9.36572C8.49059 10.5573 10.1761 10.5573 10.5733 9.36572L11.859 5.50857C12.0197 5.02649 12.1291 4.69668 12.1884 4.44734C12.2495 4.19068 12.233 4.10918 12.2265 4.08976C12.1768 3.94042 12.0596 3.82323 11.9103 3.77347C11.8908 3.767 11.8093 3.75053 11.5527 3.81158ZM11.3213 2.83873C11.6166 2.76848 11.9296 2.72587 12.2264 2.82476C12.6744 2.97405 13.026 3.3256 13.1753 3.77362C13.2742 4.07038 13.2315 4.38345 13.1613 4.67877C13.0905 4.97637 12.9665 5.34838 12.8154 5.80169L12.8077 5.8248L11.522 9.68194C10.8209 11.7852 7.8458 11.7852 7.1447 9.68194C7.01461 9.29166 6.70836 8.98541 6.31807 8.85531C4.21478 8.15422 4.21478 5.17916 6.31807 4.47806L10.1752 3.19235L10.1983 3.18466C10.6516 3.03354 11.0236 2.90952 11.3213 2.83873Z" fill="#667085"/>
</svg>
