<svg width="27" height="12" viewBox="0 0 27 12" fill="none" xmlns="http://www.w3.org/2000/svg">
<path d="M5.56813 11.154C4.50413 11.154 3.59413 10.944 2.83813 10.524C2.08213 10.104 1.4988 9.516 1.08813 8.76C0.686799 7.99467 0.486133 7.094 0.486133 6.058C0.486133 5.28333 0.598133 4.588 0.822133 3.972C1.05547 3.34667 1.39147 2.81467 1.83013 2.376C2.2688 1.928 2.8008 1.58267 3.42613 1.34C4.0608 1.09733 4.7748 0.976 5.56813 0.976C6.0348 0.976 6.50613 1.03667 6.98213 1.158C7.46747 1.27 7.88747 1.43333 8.24213 1.648C8.47547 1.77867 8.63413 1.942 8.71813 2.138C8.80213 2.334 8.82547 2.53 8.78813 2.726C8.76013 2.922 8.6808 3.09 8.55013 3.23C8.4288 3.37 8.2748 3.45867 8.08813 3.496C7.90147 3.53333 7.69147 3.49133 7.45813 3.37C7.17813 3.202 6.88413 3.08067 6.57613 3.006C6.26813 2.93133 5.95547 2.894 5.63813 2.894C5.0128 2.894 4.48547 3.02 4.05613 3.272C3.63613 3.51467 3.3188 3.86933 3.10413 4.336C2.88947 4.80267 2.78213 5.37667 2.78213 6.058C2.78213 6.73 2.88947 7.304 3.10413 7.78C3.3188 8.256 3.63613 8.62 4.05613 8.872C4.48547 9.11467 5.0128 9.236 5.63813 9.236C5.9368 9.236 6.24013 9.19867 6.54813 9.124C6.86547 9.04933 7.1688 8.93267 7.45813 8.774C7.7008 8.65267 7.91547 8.61067 8.10213 8.648C8.29813 8.676 8.4568 8.76 8.57813 8.9C8.7088 9.03067 8.78813 9.18933 8.81613 9.376C8.85347 9.56267 8.8348 9.74933 8.76013 9.936C8.68547 10.1227 8.54547 10.2813 8.34013 10.412C7.9948 10.6453 7.57013 10.8273 7.06613 10.958C6.56213 11.0887 6.0628 11.154 5.56813 11.154ZM12.2327 11.154C11.7287 11.154 11.276 11.056 10.8747 10.86C10.4733 10.664 10.1607 10.398 9.93668 10.062C9.71268 9.726 9.60068 9.348 9.60068 8.928C9.60068 8.424 9.73135 8.02733 9.99268 7.738C10.254 7.43933 10.6787 7.22933 11.2667 7.108C11.8547 6.97733 12.634 6.912 13.6047 6.912H14.3467V8.004H13.6187C13.1427 8.004 12.7553 8.032 12.4567 8.088C12.1673 8.13467 11.9573 8.21867 11.8267 8.34C11.7053 8.46133 11.6447 8.62933 11.6447 8.844C11.6447 9.10533 11.7333 9.32 11.9107 9.488C12.0973 9.656 12.3633 9.74 12.7087 9.74C12.9793 9.74 13.2173 9.67933 13.4227 9.558C13.6373 9.42733 13.8053 9.25467 13.9267 9.04C14.048 8.816 14.1087 8.564 14.1087 8.284V6.674C14.1087 6.26333 14.0153 5.974 13.8287 5.806C13.642 5.62867 13.3247 5.54 12.8767 5.54C12.6247 5.54 12.3493 5.57267 12.0507 5.638C11.7613 5.694 11.4393 5.792 11.0847 5.932C10.8793 6.02533 10.6973 6.04867 10.5387 6.002C10.38 5.946 10.2587 5.85267 10.1747 5.722C10.0907 5.582 10.0487 5.43267 10.0487 5.274C10.0487 5.106 10.0953 4.94733 10.1887 4.798C10.282 4.63933 10.436 4.52267 10.6507 4.448C11.0893 4.27067 11.5 4.14933 11.8827 4.084C12.2747 4.01867 12.634 3.986 12.9607 3.986C13.6793 3.986 14.2673 4.09333 14.7247 4.308C15.1913 4.51333 15.5413 4.83533 15.7747 5.274C16.008 5.70333 16.1247 6.25867 16.1247 6.94V10.048C16.1247 10.3933 16.0407 10.6593 15.8727 10.846C15.7047 11.0327 15.462 11.126 15.1447 11.126C14.8273 11.126 14.58 11.0327 14.4027 10.846C14.2347 10.6593 14.1507 10.3933 14.1507 10.048V9.53L14.2487 9.614C14.1927 9.93133 14.0713 10.2067 13.8847 10.44C13.7073 10.664 13.4787 10.8413 13.1987 10.972C12.9187 11.0933 12.5967 11.154 12.2327 11.154ZM20.1796 11.154C19.349 11.154 18.7283 10.9253 18.3176 10.468C17.907 10.0013 17.7016 9.31067 17.7016 8.396V2.082C17.7016 1.72733 17.7903 1.46133 17.9676 1.284C18.1543 1.09733 18.4203 1.004 18.7656 1.004C19.1016 1.004 19.3583 1.09733 19.5356 1.284C19.7223 1.46133 19.8156 1.72733 19.8156 2.082V8.312C19.8156 8.69467 19.895 8.97933 20.0536 9.166C20.2216 9.34333 20.441 9.432 20.7116 9.432C20.7863 9.432 20.8563 9.42733 20.9216 9.418C20.987 9.40867 21.057 9.404 21.1316 9.404C21.281 9.38533 21.3836 9.432 21.4396 9.544C21.505 9.64667 21.5376 9.85667 21.5376 10.174C21.5376 10.454 21.4816 10.6687 21.3696 10.818C21.2576 10.958 21.085 11.0513 20.8516 11.098C20.7583 11.1073 20.651 11.1167 20.5296 11.126C20.4083 11.1447 20.2916 11.154 20.1796 11.154ZM24.8418 11.154C24.0111 11.154 23.3904 10.9253 22.9798 10.468C22.5691 10.0013 22.3638 9.31067 22.3638 8.396V2.082C22.3638 1.72733 22.4524 1.46133 22.6298 1.284C22.8164 1.09733 23.0824 1.004 23.4278 1.004C23.7638 1.004 24.0204 1.09733 24.1978 1.284C24.3844 1.46133 24.4778 1.72733 24.4778 2.082V8.312C24.4778 8.69467 24.5571 8.97933 24.7158 9.166C24.8838 9.34333 25.1031 9.432 25.3738 9.432C25.4484 9.432 25.5184 9.42733 25.5838 9.418C25.6491 9.40867 25.7191 9.404 25.7938 9.404C25.9431 9.38533 26.0458 9.432 26.1018 9.544C26.1671 9.64667 26.1998 9.85667 26.1998 10.174C26.1998 10.454 26.1438 10.6687 26.0318 10.818C25.9198 10.958 25.7471 11.0513 25.5138 11.098C25.4204 11.1073 25.3131 11.1167 25.1918 11.126C25.0704 11.1447 24.9538 11.154 24.8418 11.154Z" fill="white"/>
</svg>
