<svg width="31" height="11" viewBox="0 0 31 11" fill="none" xmlns="http://www.w3.org/2000/svg">
<path d="M5.49192 10.126C4.49326 10.126 3.63926 9.92067 2.92992 9.51C2.22059 9.09933 1.67459 8.516 1.29192 7.76C0.918589 6.99467 0.731922 6.094 0.731922 5.058C0.731922 4.28333 0.839255 3.588 1.05392 2.972C1.26859 2.34667 1.57659 1.81467 1.97792 1.376C2.38859 0.927999 2.88792 0.587333 3.47592 0.354C4.07326 0.120666 4.74526 0.00399935 5.49192 0.00399935C6.04259 0.00399935 6.56992 0.0786662 7.07392 0.228C7.58726 0.377333 8.03059 0.592 8.40392 0.872C8.56259 0.974666 8.66526 1.10067 8.71192 1.25C8.76792 1.39 8.77726 1.52533 8.73992 1.656C8.71192 1.78667 8.65126 1.89867 8.55792 1.992C8.46459 2.076 8.34326 2.12267 8.19392 2.132C8.05392 2.14133 7.89992 2.09 7.73192 1.978C7.42392 1.74467 7.08326 1.572 6.70992 1.46C6.33659 1.348 5.94459 1.292 5.53392 1.292C4.82459 1.292 4.22726 1.44133 3.74192 1.74C3.25659 2.02933 2.88792 2.454 2.63592 3.014C2.38392 3.574 2.25792 4.25533 2.25792 5.058C2.25792 5.86067 2.38392 6.54667 2.63592 7.116C2.88792 7.676 3.25659 8.10533 3.74192 8.404C4.22726 8.69333 4.82459 8.838 5.53392 8.838C5.94459 8.838 6.33659 8.782 6.70992 8.67C7.09259 8.54867 7.45192 8.37133 7.78792 8.138C7.95592 8.03533 8.10526 7.98867 8.23592 7.998C8.37592 8.00733 8.49259 8.054 8.58592 8.138C8.67926 8.222 8.73992 8.32933 8.76792 8.46C8.80526 8.58133 8.80059 8.712 8.75392 8.852C8.71659 8.98267 8.62792 9.09467 8.48792 9.188C8.10526 9.496 7.65259 9.72933 7.12992 9.888C6.60726 10.0467 6.06126 10.126 5.49192 10.126ZM11.0749 10.098C10.8509 10.098 10.6782 10.0373 10.5569 9.916C10.4355 9.78533 10.3749 9.608 10.3749 9.384V0.746C10.3749 0.512666 10.4355 0.335333 10.5569 0.213999C10.6782 0.0926663 10.8509 0.0319998 11.0749 0.0319998C11.2989 0.0319998 11.4715 0.0926663 11.5929 0.213999C11.7235 0.335333 11.7889 0.512666 11.7889 0.746V4.624H11.5929C11.7982 4.10133 12.1202 3.70933 12.5589 3.448C12.9975 3.17733 13.5015 3.042 14.0709 3.042C14.6122 3.042 15.0602 3.14467 15.4149 3.35C15.7789 3.546 16.0495 3.84933 16.2269 4.26C16.4042 4.66133 16.4929 5.17 16.4929 5.786V9.384C16.4929 9.608 16.4322 9.78533 16.3109 9.916C16.1895 10.0373 16.0169 10.098 15.7929 10.098C15.5595 10.098 15.3822 10.0373 15.2609 9.916C15.1395 9.78533 15.0789 9.608 15.0789 9.384V5.87C15.0789 5.282 14.9622 4.85267 14.7289 4.582C14.5049 4.31133 14.1502 4.176 13.6649 4.176C13.0955 4.176 12.6382 4.35333 12.2929 4.708C11.9569 5.06267 11.7889 5.53867 11.7889 6.136V9.384C11.7889 9.86 11.5509 10.098 11.0749 10.098ZM20.6253 10.126C20.1493 10.126 19.7199 10.0327 19.3373 9.846C18.9639 9.65933 18.6699 9.40733 18.4553 9.09C18.2406 8.77267 18.1333 8.41333 18.1333 8.012C18.1333 7.508 18.2593 7.11133 18.5113 6.822C18.7726 6.52333 19.1973 6.31333 19.7853 6.192C20.3826 6.06133 21.1853 5.996 22.1933 5.996H22.8513V6.864H22.2073C21.5353 6.864 21.0033 6.89667 20.6113 6.962C20.2193 7.02733 19.9393 7.13933 19.7713 7.298C19.6126 7.44733 19.5333 7.65733 19.5333 7.928C19.5333 8.28267 19.6546 8.572 19.8973 8.796C20.1399 9.01067 20.4759 9.118 20.9053 9.118C21.2506 9.118 21.5539 9.03867 21.8153 8.88C22.0766 8.712 22.2819 8.488 22.4313 8.208C22.5899 7.928 22.6693 7.606 22.6693 7.242V5.632C22.6693 5.1 22.5573 4.71733 22.3333 4.484C22.1093 4.25067 21.7406 4.134 21.2273 4.134C20.9286 4.134 20.6159 4.17133 20.2893 4.246C19.9719 4.32067 19.6406 4.44667 19.2953 4.624C19.1366 4.69867 19.0013 4.722 18.8893 4.694C18.7773 4.666 18.6886 4.60533 18.6233 4.512C18.5579 4.40933 18.5206 4.302 18.5113 4.19C18.5113 4.06867 18.5393 3.952 18.5953 3.84C18.6606 3.728 18.7679 3.644 18.9173 3.588C19.3279 3.392 19.7339 3.252 20.1353 3.168C20.5366 3.084 20.9146 3.042 21.2693 3.042C21.8946 3.042 22.4079 3.14 22.8093 3.336C23.2199 3.532 23.5233 3.83067 23.7193 4.232C23.9153 4.63333 24.0133 5.15133 24.0133 5.786V9.384C24.0133 9.608 23.9573 9.78533 23.8453 9.916C23.7333 10.0373 23.5699 10.098 23.3553 10.098C23.1499 10.098 22.9866 10.0373 22.8653 9.916C22.7439 9.78533 22.6833 9.608 22.6833 9.384V8.474H22.8093C22.7346 8.81933 22.5946 9.118 22.3893 9.37C22.1933 9.61267 21.9459 9.79933 21.6473 9.93C21.3486 10.0607 21.0079 10.126 20.6253 10.126ZM28.8728 10.126C28.3128 10.126 27.8415 10.028 27.4588 9.832C27.0761 9.636 26.7915 9.34667 26.6048 8.964C26.4181 8.58133 26.3248 8.11467 26.3248 7.564V4.26H25.4848C25.2981 4.26 25.1535 4.21333 25.0508 4.12C24.9481 4.01733 24.8968 3.882 24.8968 3.714C24.8968 3.53667 24.9481 3.40133 25.0508 3.308C25.1535 3.21467 25.2981 3.168 25.4848 3.168H26.3248V1.726C26.3248 1.49267 26.3855 1.31533 26.5068 1.194C26.6375 1.07267 26.8148 1.012 27.0388 1.012C27.2628 1.012 27.4355 1.07267 27.5568 1.194C27.6781 1.31533 27.7388 1.49267 27.7388 1.726V3.168H29.3768C29.5635 3.168 29.7081 3.21467 29.8108 3.308C29.9135 3.40133 29.9648 3.53667 29.9648 3.714C29.9648 3.882 29.9135 4.01733 29.8108 4.12C29.7081 4.21333 29.5635 4.26 29.3768 4.26H27.7388V7.452C27.7388 7.94667 27.8415 8.32 28.0468 8.572C28.2615 8.824 28.6068 8.95 29.0828 8.95C29.2508 8.95 29.3955 8.936 29.5168 8.908C29.6475 8.87067 29.7548 8.84733 29.8388 8.838C29.9415 8.838 30.0255 8.87533 30.0908 8.95C30.1561 9.01533 30.1888 9.146 30.1888 9.342C30.1888 9.482 30.1608 9.61267 30.1048 9.734C30.0581 9.85533 29.9695 9.93467 29.8388 9.972C29.7268 10.0093 29.5728 10.042 29.3768 10.07C29.1901 10.1073 29.0221 10.126 28.8728 10.126Z" fill="#F04438"/>
</svg>
