<svg width="56" height="11" viewBox="0 0 56 11" fill="none" xmlns="http://www.w3.org/2000/svg">
<path d="M1.31545 10.098C1.08212 10.098 0.90012 10.0327 0.769453 9.902C0.64812 9.77133 0.587453 9.58933 0.587453 9.356V0.872C0.587453 0.629333 0.652786 0.447333 0.783453 0.325999C0.91412 0.195333 1.09612 0.129999 1.32945 0.129999H4.67545C5.73945 0.129999 6.56079 0.396 7.13945 0.928C7.71812 1.45067 8.00745 2.188 8.00745 3.14C8.00745 4.10133 7.71812 4.848 7.13945 5.38C6.56079 5.90267 5.73945 6.164 4.67545 6.164H2.04345V9.356C2.04345 9.58933 1.98279 9.77133 1.86145 9.902C1.74012 10.0327 1.55812 10.098 1.31545 10.098ZM2.04345 5.002H4.46545C5.16545 5.002 5.69279 4.848 6.04745 4.54C6.41145 4.22267 6.59345 3.756 6.59345 3.14C6.59345 2.53333 6.41145 2.076 6.04745 1.768C5.69279 1.45067 5.16545 1.292 4.46545 1.292H2.04345V5.002ZM9.99316 10.098C9.75982 10.098 9.58249 10.0373 9.46116 9.916C9.33982 9.78533 9.27916 9.608 9.27916 9.384V3.784C9.27916 3.55067 9.33982 3.37333 9.46116 3.252C9.58249 3.13067 9.75049 3.07 9.96516 3.07C10.1892 3.07 10.3572 3.13067 10.4692 3.252C10.5905 3.37333 10.6512 3.55067 10.6512 3.784V4.806H10.5112C10.6605 4.246 10.9358 3.82133 11.3372 3.532C11.7385 3.24267 12.2518 3.07467 12.8772 3.028C13.0452 3.01867 13.1758 3.06067 13.2692 3.154C13.3718 3.24733 13.4278 3.392 13.4372 3.588C13.4558 3.784 13.4138 3.94267 13.3112 4.064C13.2085 4.176 13.0498 4.24133 12.8352 4.26L12.5692 4.288C11.9625 4.344 11.5005 4.53533 11.1832 4.862C10.8658 5.18867 10.7072 5.63667 10.7072 6.206V9.384C10.7072 9.608 10.6465 9.78533 10.5252 9.916C10.4132 10.0373 10.2358 10.098 9.99316 10.098ZM17.6121 10.126C16.8654 10.126 16.2214 9.986 15.6801 9.706C15.1481 9.41667 14.7328 9.01067 14.4341 8.488C14.1448 7.956 14.0001 7.326 14.0001 6.598C14.0001 5.88867 14.1448 5.268 14.4341 4.736C14.7234 4.204 15.1201 3.78867 15.6241 3.49C16.1281 3.19133 16.7021 3.042 17.3461 3.042C17.8221 3.042 18.2468 3.12133 18.6201 3.28C18.9934 3.42933 19.3108 3.65333 19.5721 3.952C19.8428 4.24133 20.0434 4.596 20.1741 5.016C20.3141 5.436 20.3841 5.90733 20.3841 6.43C20.3841 6.58867 20.3374 6.71 20.2441 6.794C20.1508 6.86867 20.0108 6.906 19.8241 6.906H15.1201V6.038H19.4321L19.1941 6.234C19.1941 5.76733 19.1241 5.37067 18.9841 5.044C18.8534 4.71733 18.6528 4.47 18.3821 4.302C18.1208 4.12467 17.7941 4.036 17.4021 4.036C16.9634 4.036 16.5901 4.13867 16.2821 4.344C15.9834 4.54933 15.7548 4.834 15.5961 5.198C15.4374 5.562 15.3581 5.98667 15.3581 6.472V6.556C15.3581 7.37733 15.5494 7.998 15.9321 8.418C16.3241 8.82867 16.8888 9.034 17.6261 9.034C17.9061 9.034 18.2001 8.99667 18.5081 8.922C18.8254 8.84733 19.1241 8.72133 19.4041 8.544C19.5628 8.45067 19.7028 8.40867 19.8241 8.418C19.9548 8.42733 20.0574 8.46933 20.1321 8.544C20.2161 8.61867 20.2674 8.712 20.2861 8.824C20.3048 8.936 20.2861 9.05267 20.2301 9.174C20.1741 9.286 20.0761 9.38867 19.9361 9.482C19.6188 9.69667 19.2501 9.86 18.8301 9.972C18.4101 10.0747 18.0041 10.126 17.6121 10.126ZM22.6536 10.098C22.4296 10.098 22.257 10.0373 22.1356 9.916C22.0143 9.78533 21.9536 9.608 21.9536 9.384V3.784C21.9536 3.55067 22.0143 3.37333 22.1356 3.252C22.257 3.13067 22.425 3.07 22.6396 3.07C22.8636 3.07 23.0316 3.13067 23.1436 3.252C23.265 3.37333 23.3256 3.55067 23.3256 3.784V4.932L23.1716 4.624C23.3583 4.12933 23.6476 3.742 24.0396 3.462C24.4316 3.182 24.903 3.042 25.4536 3.042C26.023 3.042 26.485 3.17733 26.8396 3.448C27.1943 3.71867 27.437 4.134 27.5676 4.694H27.3716C27.549 4.18067 27.8523 3.77933 28.2816 3.49C28.711 3.19133 29.2103 3.042 29.7796 3.042C30.3023 3.042 30.7316 3.14467 31.0676 3.35C31.4036 3.546 31.6556 3.84933 31.8236 4.26C31.9916 4.66133 32.0756 5.17 32.0756 5.786V9.384C32.0756 9.608 32.0103 9.78533 31.8796 9.916C31.7583 10.0373 31.5856 10.098 31.3616 10.098C31.1376 10.098 30.965 10.0373 30.8436 9.916C30.7223 9.78533 30.6616 9.608 30.6616 9.384V5.856C30.6616 5.27733 30.559 4.85267 30.3536 4.582C30.1576 4.31133 29.831 4.176 29.3736 4.176C28.8603 4.176 28.4543 4.35333 28.1556 4.708C27.857 5.06267 27.7076 5.55267 27.7076 6.178V9.384C27.7076 9.608 27.647 9.78533 27.5256 9.916C27.4043 10.0373 27.2316 10.098 27.0076 10.098C26.7836 10.098 26.6063 10.0373 26.4756 9.916C26.3543 9.78533 26.2936 9.608 26.2936 9.384V5.856C26.2936 5.27733 26.1956 4.85267 25.9996 4.582C25.8036 4.31133 25.477 4.176 25.0196 4.176C24.5063 4.176 24.1003 4.35333 23.8016 4.708C23.5123 5.06267 23.3676 5.55267 23.3676 6.178V9.384C23.3676 9.86 23.1296 10.098 22.6536 10.098ZM34.7526 10.084C34.5286 10.084 34.3559 10.0187 34.2346 9.888C34.1133 9.748 34.0526 9.55667 34.0526 9.314V3.854C34.0526 3.61133 34.1133 3.42467 34.2346 3.294C34.3559 3.16333 34.5286 3.098 34.7526 3.098C34.9766 3.098 35.1493 3.16333 35.2706 3.294C35.4013 3.42467 35.4666 3.61133 35.4666 3.854V9.314C35.4666 9.55667 35.4059 9.748 35.2846 9.888C35.1633 10.0187 34.9859 10.084 34.7526 10.084ZM34.7526 1.642C34.4726 1.642 34.2533 1.572 34.0946 1.432C33.9453 1.292 33.8706 1.096 33.8706 0.843999C33.8706 0.582666 33.9453 0.386666 34.0946 0.255999C34.2533 0.116 34.4726 0.0459996 34.7526 0.0459996C35.0326 0.0459996 35.2473 0.116 35.3966 0.255999C35.5553 0.386666 35.6346 0.582666 35.6346 0.843999C35.6346 1.096 35.5553 1.292 35.3966 1.432C35.2473 1.572 35.0326 1.642 34.7526 1.642ZM39.8929 10.126C39.3422 10.126 38.8802 10.0233 38.5069 9.818C38.1429 9.61267 37.8676 9.30933 37.6809 8.908C37.5036 8.49733 37.4149 7.984 37.4149 7.368V3.784C37.4149 3.54133 37.4756 3.364 37.5969 3.252C37.7182 3.13067 37.8909 3.07 38.1149 3.07C38.3389 3.07 38.5116 3.13067 38.6329 3.252C38.7636 3.364 38.8289 3.54133 38.8289 3.784V7.382C38.8289 7.93267 38.9409 8.33867 39.1649 8.6C39.3889 8.86133 39.7436 8.992 40.2289 8.992C40.7609 8.992 41.1902 8.81467 41.5169 8.46C41.8529 8.096 42.0209 7.62 42.0209 7.032V3.784C42.0209 3.54133 42.0816 3.364 42.2029 3.252C42.3242 3.13067 42.5016 3.07 42.7349 3.07C42.9589 3.07 43.1316 3.13067 43.2529 3.252C43.3742 3.364 43.4349 3.54133 43.4349 3.784V9.384C43.4349 9.86 43.2062 10.098 42.7489 10.098C42.5342 10.098 42.3662 10.0373 42.2449 9.916C42.1236 9.78533 42.0629 9.608 42.0629 9.384V8.194L42.2449 8.502C42.0582 9.02467 41.7596 9.426 41.3489 9.706C40.9382 9.986 40.4529 10.126 39.8929 10.126ZM46.1556 10.098C45.9316 10.098 45.7589 10.0373 45.6376 9.916C45.5163 9.78533 45.4556 9.608 45.4556 9.384V3.784C45.4556 3.55067 45.5163 3.37333 45.6376 3.252C45.7589 3.13067 45.9269 3.07 46.1416 3.07C46.3656 3.07 46.5336 3.13067 46.6456 3.252C46.7669 3.37333 46.8276 3.55067 46.8276 3.784V4.932L46.6736 4.624C46.8603 4.12933 47.1496 3.742 47.5416 3.462C47.9336 3.182 48.4049 3.042 48.9556 3.042C49.5249 3.042 49.9869 3.17733 50.3416 3.448C50.6963 3.71867 50.9389 4.134 51.0696 4.694H50.8736C51.0509 4.18067 51.3543 3.77933 51.7836 3.49C52.2129 3.19133 52.7123 3.042 53.2816 3.042C53.8043 3.042 54.2336 3.14467 54.5696 3.35C54.9056 3.546 55.1576 3.84933 55.3256 4.26C55.4936 4.66133 55.5776 5.17 55.5776 5.786V9.384C55.5776 9.608 55.5123 9.78533 55.3816 9.916C55.2603 10.0373 55.0876 10.098 54.8636 10.098C54.6396 10.098 54.4669 10.0373 54.3456 9.916C54.2243 9.78533 54.1636 9.608 54.1636 9.384V5.856C54.1636 5.27733 54.0609 4.85267 53.8556 4.582C53.6596 4.31133 53.3329 4.176 52.8756 4.176C52.3623 4.176 51.9563 4.35333 51.6576 4.708C51.3589 5.06267 51.2096 5.55267 51.2096 6.178V9.384C51.2096 9.608 51.1489 9.78533 51.0276 9.916C50.9063 10.0373 50.7336 10.098 50.5096 10.098C50.2856 10.098 50.1083 10.0373 49.9776 9.916C49.8563 9.78533 49.7956 9.608 49.7956 9.384V5.856C49.7956 5.27733 49.6976 4.85267 49.5016 4.582C49.3056 4.31133 48.9789 4.176 48.5216 4.176C48.0083 4.176 47.6023 4.35333 47.3036 4.708C47.0143 5.06267 46.8696 5.55267 46.8696 6.178V9.384C46.8696 9.86 46.6316 10.098 46.1556 10.098Z" fill="white"/>
</svg>
